<svg width="20" height="20" viewBox="0 0 20 20" fill="none" xmlns="http://www.w3.org/2000/svg">
<g clip-path="url(#clip0_949_8556)">
<path d="M10 0C15.5228 0 20 4.47715 20 10C20 15.5228 15.5228 20 10 20C4.47715 20 0 15.5228 0 10C0 4.47715 4.47715 0 10 0ZM14.4415 6C14.0606 6.00676 13.4761 6.20741 10.6631 7.3625C9.67796 7.76705 7.70898 8.60438 4.75619 9.87448C4.27671 10.0627 4.02553 10.2469 4.00267 10.427C3.95877 10.7727 4.46291 10.8803 5.09724 11.0839C5.6144 11.2498 6.31008 11.444 6.67173 11.4517C6.99979 11.4587 7.36594 11.3252 7.77017 11.0512C10.5291 9.21255 11.9532 8.28323 12.0426 8.26319C12.1057 8.24906 12.1931 8.23129 12.2523 8.28326C12.3115 8.33523 12.3057 8.43365 12.2995 8.46005C12.2493 8.67117 9.65765 10.9985 9.5085 11.1514L9.43697 11.2233C8.88741 11.7661 8.33196 12.1205 9.29033 12.744C10.1557 13.307 10.6593 13.6661 11.5508 14.2431C12.1205 14.6118 12.5671 15.049 13.1553 14.9955C13.426 14.971 13.7056 14.7197 13.8476 13.9703C14.1831 12.1993 14.8427 8.3621 14.9951 6.78087C15.0085 6.64234 14.9917 6.46504 14.9782 6.38721C14.9647 6.30938 14.9365 6.19849 14.834 6.1164C14.7127 6.01918 14.5253 5.99868 14.4415 6Z" fill="#455FE9"/>
</g>
<defs>
<clipPath id="clip0_949_8556">
<rect width="20" height="20" fill="white"/>
</clipPath>
</defs>
</svg>
