<svg width="20" height="20" viewBox="0 0 20 20" fill="none" xmlns="http://www.w3.org/2000/svg">
<circle cx="10" cy="10" r="10" fill="#455FE9"/>
<path d="M13.8734 5.34375H6.09536C4.5687 5.34375 3.33203 6.56708 3.33203 8.07642V11.9218C3.33203 13.4311 4.56936 14.6551 6.09536 14.6551H13.8734C15.4 14.6551 16.6367 13.4311 16.6367 11.9218V8.07642C16.6367 6.56708 15.3994 5.34375 13.8734 5.34375ZM12.0047 10.1858L8.3667 11.9024C8.34451 11.9131 8.31998 11.918 8.29539 11.9167C8.2708 11.9153 8.24695 11.9078 8.22605 11.8947C8.20516 11.8817 8.18791 11.8636 8.1759 11.8421C8.16389 11.8206 8.15751 11.7964 8.15737 11.7718V8.23242C8.15737 8.12508 8.2727 8.05508 8.36937 8.10375L12.008 9.92708C12.0323 9.93917 12.0526 9.95785 12.0667 9.98097C12.0808 10.0041 12.0881 10.0307 12.0878 10.0578C12.0874 10.0849 12.0794 10.1113 12.0647 10.1341C12.05 10.1568 12.0292 10.1743 12.0047 10.1858Z" fill="#EAECF7"/>
</svg>
