<svg width="48" height="48" viewBox="0 0 48 48" fill="none" xmlns="http://www.w3.org/2000/svg">
<path d="M12.16 20.375C10.9302 22.2898 10.3484 24.549 10.5002 26.8198C10.5099 29.0752 10.938 31.309 11.7631 33.4066C12.7029 36.0102 14.1701 38.392 16.0713 40.404C17.3303 42.0484 19.6245 42.4862 21.3992 41.4178C23.3508 40.41 25.6606 40.3672 27.6494 41.303C29.671 42.5602 32.3252 42.0114 33.6796 40.0538C35.2752 38.25 36.5186 36.166 37.3496 33.9068C37.6258 33.1128 37.6298 33.1246 36.9078 32.6944C35.0436 31.6806 33.7302 29.8866 33.3274 27.8026C32.6774 24.942 33.8138 21.9706 36.2092 20.2778C36.6432 19.9431 36.7346 19.7115 36.3592 19.2931C34.6 17.1857 31.8486 16.1836 29.1458 16.6662C28.1124 16.8472 27.1064 17.1585 26.153 17.5963C24.925 18.1898 23.489 18.1684 22.2786 17.536C18.6866 15.6543 14.2499 16.8997 12.16 20.375Z" stroke="#6C757D" stroke-width="3" stroke-linecap="round" stroke-linejoin="round"/>
<path fill-rule="evenodd" clip-rule="evenodd" d="M24.0445 13.9606C23.5443 9.76334 26.4321 6.25686 30.6001 6C31.4251 10.3432 28.4811 13.8925 24.0639 13.9587C24.0581 13.9587 24.0503 13.9606 24.0445 13.9606Z" stroke="#6C757D" stroke-width="3" stroke-linecap="round" stroke-linejoin="round"/>
</svg>
