<svg xmlns="http://www.w3.org/2000/svg" viewBox="0 0 3340 888">  
  <g class="hiddify-logo-icon" fill="#455FE9">  
    <path  d=" M1.000001,589.468628   C2.771058,587.061707 4.274509,584.750183 6.362225,583.253601   C13.241864,578.322021 20.152021,573.388489 27.374897,568.988220   C55.219608,552.024841 83.171227,535.236572 111.119110,518.443176   C141.035187,500.467041 170.606247,481.863831 201.104828,464.933899   C214.929230,457.259918 234.865494,466.541107 234.924423,485.493042   C235.122406,549.156616 235.144989,612.821838 234.886475,676.484924   C234.829788,690.440002 245.391037,701.913086 260.223206,701.984985   C274.388977,702.053711 288.556580,702.115295 302.721161,701.968506   C317.918945,701.810974 328.015381,690.981079 328.011902,676.448914   C327.988892,580.452637 328.029297,484.456360 327.955780,388.460144   C327.948242,378.619659 332.308350,371.746094 340.550629,366.799286   C370.069794,349.082611 399.520233,331.251404 429.032501,313.523163   C453.091003,299.071075 477.205719,284.712616 501.284760,270.294739   C508.841125,265.770172 516.504211,261.403870 523.870178,256.585632   C538.573120,246.968094 557.312561,253.509216 561.498779,270.044769   C561.896606,271.616272 561.980408,273.301849 561.980591,274.934448   C562.001221,464.260437 562.001404,653.586426 561.997070,842.912415   C561.996765,855.779602 551.851807,865.993103 539.054138,865.995056   C476.389893,866.004883 413.725555,865.932617 351.061554,866.058777   C339.268738,866.082520 327.471558,854.817749 327.812958,842.959106   C328.460114,820.478577 327.720093,797.961487 328.100830,775.468811   C328.344574,761.069580 317.821533,748.448608 301.746094,748.917236   C288.091553,749.315308 274.414001,749.153076 260.750641,748.958679   C245.373535,748.739868 234.604294,759.816284 234.886185,774.567322   C235.319138,797.224792 234.917374,819.897156 235.031677,842.562317   C235.097214,855.560181 224.483521,866.035339 211.702454,866.024109   C149.538239,865.969727 87.373932,865.967468 25.209743,866.032288   C15.220128,866.042725 8.019124,861.657166 3.011859,853.226990   C2.723829,852.742065 2.163637,852.418884 1.365048,852.010254   C1.000000,764.645752 1.000000,677.291565 1.000001,589.468628  z"/>
    <path  d=" M889.000000,851.531372   C888.231567,852.584778 887.221069,853.014587 886.732178,853.778320   C881.798279,861.485413 875.059631,866.000061 865.673218,865.999939   C803.346436,865.999268 741.019287,865.899780 678.693054,866.087830   C666.900818,866.123352 654.920288,856.007141 654.929993,842.457703   C655.041687,686.807434 655.072449,531.156921 654.870667,375.506866   C654.853882,362.568451 665.330750,350.835724 679.770569,350.904541   C731.597229,351.151520 783.425903,351.001373 835.253784,351.001343   C844.419495,351.001343 853.588867,351.164459 862.749939,350.958557   C873.330750,350.720795 881.564941,354.543854 886.973267,363.869537   C887.366882,364.548401 888.008545,365.083405 888.767456,365.342651   C889.000000,527.020874 889.000000,689.041809 889.000000,851.531372  z"/>
    <path  d=" M656.166748,196.999588   C655.488342,187.585693 662.401367,183.094833 668.852112,179.173416   C710.332825,153.957153 752.019836,129.080063 793.642639,104.097580   C813.472412,92.195572 833.224854,80.161453 853.176758,68.467796   C864.763855,61.676704 878.157593,65.093384 885.164185,75.524017   C886.155518,76.999863 887.404785,78.302521 888.767334,79.342659   C889.000000,149.354233 889.000000,219.708450 889.000000,290.531342   C888.128052,291.713898 887.018982,292.269836 886.421631,293.166656   C881.593262,300.415466 875.484985,305.065918 866.209045,305.051208   C803.724426,304.951935 741.239502,304.930023 678.755127,305.075134   C669.498352,305.096619 658.258301,298.849792 656.265869,287.214081   C657.031067,284.951599 657.928101,283.271057 657.933777,281.587494   C658.022522,255.171783 658.031799,228.755524 657.918091,202.339996   C657.910400,200.557373 656.776733,198.779617 656.166748,196.999588  z"/>
    <path  d=" M656.079346,197.418610   C656.776733,198.779617 657.910400,200.557373 657.918091,202.339996   C658.031799,228.755524 658.022522,255.171783 657.933777,281.587494   C657.928101,283.271057 657.031067,284.951599 656.215820,286.836426   C655.588745,285.500671 655.041260,283.962494 655.038147,282.423218   C654.985596,256.140381 654.979797,229.857391 655.043152,203.574631   C655.047729,201.661545 655.661499,199.749939 656.079346,197.418610  z"/>
  </g>

  <g class="hiddify-logo-text" transform="translate(1200, 245) scale(1.7)">
    <path d="M 1210 357.402 L 1140.8 357.402 Q 1114.6 357.402 1102.1 344.802 A 38.501 38.501 0 0 1 1093.339 330.508 Q 1091.148 324.438 1090.241 316.93 A 94.606 94.606 0 0 1 1089.6 305.602 A 14.972 14.972 0 0 1 1090.116 301.486 Q 1091.916 295.202 1100 295.202 A 15.624 15.624 0 0 1 1104.131 295.699 Q 1108.857 296.998 1110.13 301.683 A 14.96 14.96 0 0 1 1110.6 305.602 Q 1110.6 319.694 1114.523 326.676 A 15.18 15.18 0 0 0 1117 330.002 A 17.174 17.174 0 0 0 1122.621 333.612 Q 1127.824 335.781 1135.923 336.263 A 82.098 82.098 0 0 0 1140.8 336.402 L 1210 336.402 A 75.724 75.724 0 0 0 1218.086 336.003 Q 1229.197 334.805 1234 330.002 A 16.843 16.843 0 0 0 1237.511 324.553 Q 1240.4 317.695 1240.4 305.602 L 1240.4 250.602 Q 1229 265.602 1211.8 271.602 Q 1195.675 277.227 1174.453 277.578 A 172.214 172.214 0 0 1 1171.6 277.602 L 1160.4 277.602 Q 1138.169 277.602 1123.163 271.397 A 50.225 50.225 0 0 1 1106.6 260.602 A 51.66 51.66 0 0 1 1094.758 241.413 Q 1091.776 233.225 1090.518 223.07 A 129.32 129.32 0 0 1 1089.6 207.202 L 1089.6 98.602 A 15.624 15.624 0 0 1 1090.098 94.471 Q 1091.396 89.745 1096.082 88.472 A 14.96 14.96 0 0 1 1100 88.002 A 15.26 15.26 0 0 1 1104.195 88.527 Q 1110.6 90.362 1110.6 98.602 L 1110.6 207.202 A 112.096 112.096 0 0 0 1111.282 220.039 Q 1112.875 233.812 1118.197 241.77 A 25.981 25.981 0 0 0 1121.5 245.802 A 30.086 30.086 0 0 0 1131.41 252.115 Q 1142.354 256.602 1160.4 256.602 L 1171.6 256.602 A 159.396 159.396 0 0 0 1189.856 255.629 Q 1211.354 253.142 1223.5 244.302 A 39.798 39.798 0 0 0 1239.472 218.14 A 61.368 61.368 0 0 0 1240.4 207.202 L 1240.4 98.602 A 15.624 15.624 0 0 1 1240.898 94.471 Q 1242.196 89.745 1246.882 88.472 A 14.96 14.96 0 0 1 1250.8 88.002 A 15.26 15.26 0 0 1 1254.995 88.527 Q 1261.4 90.362 1261.4 98.602 L 1261.4 305.602 A 89.746 89.746 0 0 1 1260.328 319.986 Q 1257.738 335.893 1248.9 344.802 Q 1239.138 354.642 1220.897 356.797 A 93.006 93.006 0 0 1 1210 357.402 Z M 0 266.802 L 0 30.202 A 12.884 12.884 0 0 1 0.425 26.805 A 9.511 9.511 0 0 1 2.9 22.502 A 9.725 9.725 0 0 1 8.319 19.783 A 13.792 13.792 0 0 1 10.6 19.602 A 12.825 12.825 0 0 1 13.856 19.993 A 9.125 9.125 0 0 1 18.2 22.502 A 9.768 9.768 0 0 1 20.767 27.585 A 13.978 13.978 0 0 1 21 30.202 L 21 136.202 L 188.8 136.202 L 188.8 30.202 A 13.371 13.371 0 0 1 189.194 26.869 A 9.608 9.608 0 0 1 191.6 22.502 A 9.275 9.275 0 0 1 196.659 19.831 A 13.44 13.44 0 0 1 199.2 19.602 A 12.884 12.884 0 0 1 202.597 20.027 A 9.511 9.511 0 0 1 206.9 22.502 A 9.725 9.725 0 0 1 209.619 27.92 A 13.792 13.792 0 0 1 209.8 30.202 L 209.8 266.802 A 12.884 12.884 0 0 1 209.376 270.198 A 9.511 9.511 0 0 1 206.9 274.502 Q 204 277.402 199.2 277.402 A 12.825 12.825 0 0 1 195.945 277.011 A 9.125 9.125 0 0 1 191.6 274.502 A 9.768 9.768 0 0 1 189.034 269.418 A 13.978 13.978 0 0 1 188.8 266.802 L 188.8 157.202 L 21 157.202 L 21 266.802 A 13.371 13.371 0 0 1 20.607 270.134 A 9.608 9.608 0 0 1 18.2 274.502 A 9.275 9.275 0 0 1 13.142 277.172 A 13.44 13.44 0 0 1 10.6 277.402 A 12.884 12.884 0 0 1 7.204 276.977 A 9.511 9.511 0 0 1 2.9 274.502 A 9.725 9.725 0 0 1 0.182 269.083 A 13.792 13.792 0 0 1 0 266.802 Z M 462.4 277.402 L 447.2 277.402 A 127.316 127.316 0 0 1 427.25 275.948 Q 416.888 274.299 408.675 270.783 A 51.207 51.207 0 0 1 392.4 260.002 A 52.739 52.739 0 0 1 380.354 240.539 Q 377.343 232.331 376.025 222.176 A 132.182 132.182 0 0 1 375 205.202 L 375 160.402 A 127.155 127.155 0 0 1 376.454 140.459 Q 378.075 130.283 381.501 122.192 A 50.936 50.936 0 0 1 392.4 105.702 A 52.58 52.58 0 0 1 411.454 93.875 Q 419.728 90.796 430.004 89.449 A 132.568 132.568 0 0 1 447.2 88.402 L 531 88.402 L 531 10.402 Q 531 2.144 537.684 0.443 A 15.915 15.915 0 0 1 541.6 0.002 A 14.972 14.972 0 0 1 545.716 0.517 Q 552 2.317 552 10.402 L 552 266.802 A 15.624 15.624 0 0 1 551.503 270.932 Q 550.205 275.658 545.519 276.932 A 14.96 14.96 0 0 1 541.6 277.402 A 15.26 15.26 0 0 1 537.406 276.876 Q 531 275.041 531 266.802 L 531 249.602 A 51.266 51.266 0 0 1 511.27 267.794 A 64.896 64.896 0 0 1 505.8 270.402 Q 493.74 275.488 476.294 276.878 A 175.131 175.131 0 0 1 462.4 277.402 Z M 447.2 256.402 L 462.4 256.402 A 160.308 160.308 0 0 0 481.952 255.284 Q 499.883 253.076 512.3 246.502 A 39.764 39.764 0 0 0 522.559 238.939 Q 530.737 230.381 530.992 217.629 A 41.28 41.28 0 0 0 531 216.802 L 531 109.402 L 447.2 109.402 Q 423.054 109.402 411.24 117.456 A 27.285 27.285 0 0 0 407.3 120.702 Q 396.978 131.024 396.085 155.615 A 131.937 131.937 0 0 0 396 160.402 L 396 205.202 A 114.761 114.761 0 0 0 396.707 218.42 Q 398.386 232.846 404.055 241.162 A 27.285 27.285 0 0 0 407.3 245.102 Q 417.519 255.32 441.884 256.298 A 132.619 132.619 0 0 0 447.2 256.402 Z M 705.2 277.402 L 690 277.402 A 127.316 127.316 0 0 1 670.05 275.948 Q 659.688 274.299 651.475 270.783 A 51.207 51.207 0 0 1 635.2 260.002 A 52.739 52.739 0 0 1 623.154 240.539 Q 620.143 232.331 618.825 222.176 A 132.182 132.182 0 0 1 617.8 205.202 L 617.8 160.402 A 127.155 127.155 0 0 1 619.254 140.459 Q 620.875 130.283 624.301 122.192 A 50.936 50.936 0 0 1 635.2 105.702 A 52.58 52.58 0 0 1 654.254 93.875 Q 662.528 90.796 672.804 89.449 A 132.568 132.568 0 0 1 690 88.402 L 773.8 88.402 L 773.8 10.402 Q 773.8 2.144 780.484 0.443 A 15.915 15.915 0 0 1 784.4 0.002 A 14.972 14.972 0 0 1 788.516 0.517 Q 794.8 2.317 794.8 10.402 L 794.8 266.802 A 15.624 15.624 0 0 1 794.303 270.932 Q 793.005 275.658 788.319 276.932 A 14.96 14.96 0 0 1 784.4 277.402 A 15.26 15.26 0 0 1 780.206 276.876 Q 773.8 275.041 773.8 266.802 L 773.8 249.602 A 51.266 51.266 0 0 1 754.07 267.794 A 64.896 64.896 0 0 1 748.6 270.402 Q 736.54 275.488 719.094 276.878 A 175.131 175.131 0 0 1 705.2 277.402 Z M 690 256.402 L 705.2 256.402 A 160.308 160.308 0 0 0 724.752 255.284 Q 742.683 253.076 755.1 246.502 A 39.764 39.764 0 0 0 765.359 238.939 Q 773.537 230.381 773.792 217.629 A 41.28 41.28 0 0 0 773.8 216.802 L 773.8 109.402 L 690 109.402 Q 665.854 109.402 654.04 117.456 A 27.285 27.285 0 0 0 650.1 120.702 Q 639.778 131.024 638.885 155.615 A 131.937 131.937 0 0 0 638.8 160.402 L 638.8 205.202 A 114.761 114.761 0 0 0 639.507 218.42 Q 641.186 232.846 646.855 241.162 A 27.285 27.285 0 0 0 650.1 245.102 Q 660.319 255.32 684.684 256.298 A 132.619 132.619 0 0 0 690 256.402 Z M 965.2 266.802 L 965.2 109.402 L 948.4 109.402 A 15.26 15.26 0 0 1 944.206 108.876 Q 937.8 107.041 937.8 98.802 Q 937.8 90.544 944.484 88.843 A 15.915 15.915 0 0 1 948.4 88.402 L 965.2 88.402 L 965.2 70.802 A 126.027 126.027 0 0 1 966.553 51.668 Q 970.01 29.22 982.3 17.002 Q 995.192 4.185 1019.281 1.031 A 130.582 130.582 0 0 1 1036.2 0.002 A 14.378 14.378 0 0 1 1040.268 0.526 Q 1044.772 1.856 1045.968 6.559 A 15.62 15.62 0 0 1 1046.4 10.402 A 15.914 15.914 0 0 1 1045.912 14.532 Q 1044.467 19.897 1038.741 20.813 A 16.098 16.098 0 0 1 1036.2 21.002 A 113.91 113.91 0 0 0 1023.263 21.683 Q 1009.325 23.282 1001.242 28.635 A 26.529 26.529 0 0 0 997.2 31.902 Q 987.315 41.697 986.313 65.302 A 129.781 129.781 0 0 0 986.2 70.802 L 986.2 88.402 L 1035.8 88.402 A 15.624 15.624 0 0 1 1039.931 88.899 Q 1044.657 90.198 1045.93 94.883 A 14.96 14.96 0 0 1 1046.4 98.802 A 15.26 15.26 0 0 1 1045.875 102.996 Q 1044.04 109.402 1035.8 109.402 L 986.2 109.402 L 986.2 266.802 A 15.624 15.624 0 0 1 985.703 270.932 Q 984.405 275.658 979.719 276.932 A 14.96 14.96 0 0 1 975.8 277.402 A 15.26 15.26 0 0 1 971.606 276.876 Q 965.2 275.041 965.2 266.802 Z M 284.6 266.802 L 284.6 98.802 Q 284.6 90.544 291.284 88.843 A 15.915 15.915 0 0 1 295.2 88.402 A 14.972 14.972 0 0 1 299.316 88.917 Q 305.6 90.717 305.6 98.802 L 305.6 266.802 A 15.624 15.624 0 0 1 305.103 270.932 Q 303.805 275.658 299.119 276.932 A 14.96 14.96 0 0 1 295.2 277.402 A 15.26 15.26 0 0 1 291.006 276.876 Q 284.6 275.041 284.6 266.802 Z M 866 266.802 L 866 98.802 Q 866 90.544 872.684 88.843 A 15.915 15.915 0 0 1 876.6 88.402 A 14.972 14.972 0 0 1 880.716 88.917 Q 887 90.717 887 98.802 L 887 266.802 A 15.624 15.624 0 0 1 886.503 270.932 Q 885.205 275.658 880.519 276.932 A 14.96 14.96 0 0 1 876.6 277.402 A 15.26 15.26 0 0 1 872.406 276.876 Q 866 275.041 866 266.802 Z M 299.6 52.002 L 290.6 52.002 A 19.247 19.247 0 0 1 285.066 51.276 Q 278.964 49.442 277.367 42.971 A 21.621 21.621 0 0 1 276.8 37.802 L 276.8 28.802 A 19.866 19.866 0 0 1 277.485 23.34 Q 279.239 17.217 285.49 15.59 A 20.331 20.331 0 0 1 290.6 15.002 L 299.6 15.002 A 18.668 18.668 0 0 1 304.979 15.708 Q 310.901 17.492 312.451 23.779 A 21.031 21.031 0 0 1 313 28.802 L 313 37.802 Q 313 52.002 299.6 52.002 Z M 881 52.002 L 872 52.002 A 19.247 19.247 0 0 1 866.466 51.276 Q 860.364 49.442 858.767 42.971 A 21.621 21.621 0 0 1 858.2 37.802 L 858.2 28.802 A 19.866 19.866 0 0 1 858.885 23.34 Q 860.639 17.217 866.89 15.59 A 20.331 20.331 0 0 1 872 15.002 L 881 15.002 A 18.668 18.668 0 0 1 886.379 15.708 Q 892.301 17.492 893.851 23.779 A 21.031 21.031 0 0 1 894.4 28.802 L 894.4 37.802 Q 894.4 52.002 881 52.002 Z" vector-effect="non-scaling-stroke"/>
  </g>
</svg>