<svg viewBox="0 0 500 92" fill="none" xmlns="http://www.w3.org/2000/svg">
<path class="hiddify-logo-stroke" d="M40.325 4.02702C43.8367 1.99954 48.1633 1.99954 51.675 4.02702L79.5122 20.0988C83.0239 22.1263 85.1872 25.8732 85.1872 29.9282V62.0718C85.1872 66.1268 83.0239 69.8737 79.5122 71.9012L51.675 87.973C48.1633 90.0005 43.8367 90.0005 40.325 87.973L12.4878 71.9012C8.97613 69.8737 6.81283 66.1268 6.81283 62.0718L6.81283 29.9282C6.81283 25.8732 8.97613 22.1263 12.4878 20.0988L40.325 4.02702Z" stroke="#455FE9" stroke-width="1.3"/>
<path class="hiddify-logo-icon" fill="#455FE9" d="M54.9846 30.1151C54.6676 30.3054 54.4737 30.648 54.4737 31.0177V34.6315C54.4737 35.2128 54.9451 35.6841 55.5263 35.6841H63.9474C64.5286 35.6841 65 35.2128 65 34.6315V25.9644C65 25.1462 64.1074 24.6408 63.4057 25.0618L54.9846 30.1151ZM40.2479 38.5367C39.9308 38.7269 39.7368 39.0695 39.7368 39.4393V49.3697L39.7368 50.4221L39.7368 50.4223L39.7368 52.5263C39.7368 53.1076 39.2656 53.5789 38.6842 53.5789H36.5789C35.9976 53.5789 35.5263 53.1076 35.5263 52.5263V50.4221V43.8597C35.5263 43.0414 34.6337 42.5361 33.9321 42.9571L25.511 48.0103C25.194 48.2006 25 48.5432 25 48.913V59.896C25 60.4773 25.4713 60.9486 26.0526 60.9486H34.4737C35.055 60.9486 35.5263 60.4773 35.5263 59.896V58.8431V56.7379C35.5263 56.1564 35.9976 55.6852 36.5789 55.6852H38.6842C39.2656 55.6852 39.7368 56.1564 39.7368 56.7379V58.8431L39.7368 59.896C39.7368 60.4773 40.2081 60.9486 40.7895 60.9486H49.2105C49.7918 60.9486 50.2632 60.4773 50.2632 59.896V50.4223V49.3697V34.386C50.2632 33.5677 49.3705 33.0624 48.6688 33.4834L40.2479 38.5367ZM54.4737 59.8958V38.8431C54.4737 38.2618 54.945 37.7905 55.5263 37.7905H63.9474C64.5287 37.7905 65 38.2618 65 38.8431V59.8958C65 60.4771 64.5287 60.9484 63.9474 60.9484H55.5263C54.945 60.9484 54.4737 60.4771 54.4737 59.8958Z" />

<g class="hiddify-logo-text" fill="#000" transform="translate(101, 27) scale(.1273)" ><path d="M 1436.6 266.802 L 1436.6 30.202 A 15.26 15.26 0 0 1 1437.126 26.007 Q 1438.961 19.602 1447.2 19.602 Q 1454.8 19.602 1459.2 26.602 L 1558.8 178.802 L 1554 179.402 L 1653.6 26.602 Q 1657.378 20.307 1664.551 19.673 A 18.734 18.734 0 0 1 1666.2 19.602 A 11.906 11.906 0 0 1 1670.09 20.184 Q 1675.6 22.086 1675.6 30.202 L 1675.6 266.802 A 15.624 15.624 0 0 1 1675.103 270.932 Q 1673.805 275.658 1669.119 276.932 A 14.96 14.96 0 0 1 1665.2 277.402 A 15.26 15.26 0 0 1 1661.006 276.876 Q 1654.6 275.041 1654.6 266.802 L 1654.6 51.202 L 1660.8 53.202 L 1568.4 194.002 Q 1564.319 200.309 1556.968 200.766 A 18.827 18.827 0 0 1 1555.8 200.802 A 12.712 12.712 0 0 1 1545.834 196.182 A 19.027 19.027 0 0 1 1544.2 194.002 L 1451.8 53.202 L 1457.6 55.402 L 1457.6 266.802 A 15.624 15.624 0 0 1 1457.103 270.932 Q 1455.805 275.658 1451.119 276.932 A 14.96 14.96 0 0 1 1447.2 277.402 A 15.26 15.26 0 0 1 1443.006 276.876 Q 1436.6 275.041 1436.6 266.802 Z M 1210 357.402 L 1140.8 357.402 Q 1114.6 357.402 1102.1 344.802 A 38.501 38.501 0 0 1 1093.339 330.508 Q 1091.148 324.438 1090.241 316.93 A 94.606 94.606 0 0 1 1089.6 305.602 A 14.972 14.972 0 0 1 1090.116 301.486 Q 1091.916 295.202 1100 295.202 A 15.624 15.624 0 0 1 1104.131 295.699 Q 1108.857 296.998 1110.13 301.683 A 14.96 14.96 0 0 1 1110.6 305.602 Q 1110.6 319.694 1114.523 326.676 A 15.18 15.18 0 0 0 1117 330.002 A 17.174 17.174 0 0 0 1122.621 333.612 Q 1127.824 335.781 1135.923 336.263 A 82.098 82.098 0 0 0 1140.8 336.402 L 1210 336.402 A 75.724 75.724 0 0 0 1218.086 336.003 Q 1229.197 334.805 1234 330.002 A 16.843 16.843 0 0 0 1237.511 324.553 Q 1240.4 317.695 1240.4 305.602 L 1240.4 250.602 Q 1229 265.602 1211.8 271.602 Q 1195.675 277.227 1174.453 277.578 A 172.214 172.214 0 0 1 1171.6 277.602 L 1160.4 277.602 Q 1138.169 277.602 1123.163 271.397 A 50.225 50.225 0 0 1 1106.6 260.602 A 51.66 51.66 0 0 1 1094.758 241.413 Q 1091.776 233.225 1090.518 223.07 A 129.32 129.32 0 0 1 1089.6 207.202 L 1089.6 98.602 A 15.624 15.624 0 0 1 1090.098 94.471 Q 1091.396 89.745 1096.082 88.472 A 14.96 14.96 0 0 1 1100 88.002 A 15.26 15.26 0 0 1 1104.195 88.527 Q 1110.6 90.362 1110.6 98.602 L 1110.6 207.202 A 112.096 112.096 0 0 0 1111.282 220.039 Q 1112.875 233.812 1118.197 241.77 A 25.981 25.981 0 0 0 1121.5 245.802 A 30.086 30.086 0 0 0 1131.41 252.115 Q 1142.354 256.602 1160.4 256.602 L 1171.6 256.602 A 159.396 159.396 0 0 0 1189.856 255.629 Q 1211.354 253.142 1223.5 244.302 A 39.798 39.798 0 0 0 1239.472 218.14 A 61.368 61.368 0 0 0 1240.4 207.202 L 1240.4 98.602 A 15.624 15.624 0 0 1 1240.898 94.471 Q 1242.196 89.745 1246.882 88.472 A 14.96 14.96 0 0 1 1250.8 88.002 A 15.26 15.26 0 0 1 1254.995 88.527 Q 1261.4 90.362 1261.4 98.602 L 1261.4 305.602 A 89.746 89.746 0 0 1 1260.328 319.986 Q 1257.738 335.893 1248.9 344.802 Q 1239.138 354.642 1220.897 356.797 A 93.006 93.006 0 0 1 1210 357.402 Z M 0 266.802 L 0 30.202 A 12.884 12.884 0 0 1 0.425 26.805 A 9.511 9.511 0 0 1 2.9 22.502 A 9.725 9.725 0 0 1 8.319 19.783 A 13.792 13.792 0 0 1 10.6 19.602 A 12.825 12.825 0 0 1 13.856 19.993 A 9.125 9.125 0 0 1 18.2 22.502 A 9.768 9.768 0 0 1 20.767 27.585 A 13.978 13.978 0 0 1 21 30.202 L 21 136.202 L 188.8 136.202 L 188.8 30.202 A 13.371 13.371 0 0 1 189.194 26.869 A 9.608 9.608 0 0 1 191.6 22.502 A 9.275 9.275 0 0 1 196.659 19.831 A 13.44 13.44 0 0 1 199.2 19.602 A 12.884 12.884 0 0 1 202.597 20.027 A 9.511 9.511 0 0 1 206.9 22.502 A 9.725 9.725 0 0 1 209.619 27.92 A 13.792 13.792 0 0 1 209.8 30.202 L 209.8 266.802 A 12.884 12.884 0 0 1 209.376 270.198 A 9.511 9.511 0 0 1 206.9 274.502 Q 204 277.402 199.2 277.402 A 12.825 12.825 0 0 1 195.945 277.011 A 9.125 9.125 0 0 1 191.6 274.502 A 9.768 9.768 0 0 1 189.034 269.418 A 13.978 13.978 0 0 1 188.8 266.802 L 188.8 157.202 L 21 157.202 L 21 266.802 A 13.371 13.371 0 0 1 20.607 270.134 A 9.608 9.608 0 0 1 18.2 274.502 A 9.275 9.275 0 0 1 13.142 277.172 A 13.44 13.44 0 0 1 10.6 277.402 A 12.884 12.884 0 0 1 7.204 276.977 A 9.511 9.511 0 0 1 2.9 274.502 A 9.725 9.725 0 0 1 0.182 269.083 A 13.792 13.792 0 0 1 0 266.802 Z M 2585.8 357.402 L 2511.4 357.402 Q 2495.959 357.402 2485.312 353.249 A 38.919 38.919 0 0 1 2475.4 347.702 A 35.039 35.039 0 0 1 2464.678 333.277 Q 2462.492 328.045 2461.404 321.619 A 71.569 71.569 0 0 1 2460.8 317.202 A 15.951 15.951 0 0 1 2460.702 315.891 Q 2460.563 311.613 2463 309.002 A 9.17 9.17 0 0 1 2467.89 306.295 A 13.691 13.691 0 0 1 2470.8 306.002 A 15.411 15.411 0 0 1 2473.691 306.255 Q 2476.613 306.814 2478.4 308.602 A 10.197 10.197 0 0 1 2480.387 311.492 Q 2480.997 312.783 2481.397 314.378 A 22.259 22.259 0 0 1 2481.8 316.402 A 34.313 34.313 0 0 0 2483.015 322.341 Q 2483.982 325.495 2485.542 327.836 A 14.472 14.472 0 0 0 2490 332.202 Q 2496.8 336.402 2511.4 336.402 L 2585.8 336.402 A 75.661 75.661 0 0 0 2593.836 336.008 Q 2601.94 335.138 2606.654 332.35 A 14.856 14.856 0 0 0 2609.7 330.002 A 16.968 16.968 0 0 0 2613.157 324.596 Q 2615.367 319.334 2615.86 311.017 A 85.02 85.02 0 0 0 2616 306.002 L 2616 248.802 A 56.402 56.402 0 0 1 2594.575 267.916 A 69.74 69.74 0 0 1 2590 270.102 A 79.655 79.655 0 0 1 2574.224 274.962 Q 2562.316 277.402 2547.4 277.402 L 2532.2 277.402 Q 2509.341 277.402 2493.954 270.939 A 51.362 51.362 0 0 1 2477.4 260.102 Q 2460 242.802 2460 205.602 L 2460 160.402 Q 2460 137.884 2466.14 122.712 A 50.408 50.408 0 0 1 2477.3 105.502 A 52.114 52.114 0 0 1 2496.119 93.888 Q 2510.904 88.402 2532.2 88.402 L 2565 88.402 A 121.194 121.194 0 0 1 2577.601 89.016 Q 2588.794 90.189 2596.8 93.602 Q 2609 98.802 2616 109.802 L 2616 98.802 Q 2616 90.544 2622.684 88.843 A 15.915 15.915 0 0 1 2626.6 88.402 A 14.972 14.972 0 0 1 2630.716 88.917 Q 2637 90.717 2637 98.802 L 2637 306.002 A 89.105 89.105 0 0 1 2635.936 320.277 Q 2634.732 327.677 2632.166 333.55 A 36.881 36.881 0 0 1 2624.6 344.902 A 37.742 37.742 0 0 1 2610.488 353.663 Q 2600.238 357.402 2585.8 357.402 Z M 2532.2 256.402 L 2547.4 256.402 A 161.924 161.924 0 0 0 2566.952 255.296 Q 2576.758 254.1 2584.915 251.612 A 71.679 71.679 0 0 0 2597.3 246.602 A 39.092 39.092 0 0 0 2607.657 238.969 Q 2616 230.161 2616 216.802 L 2616 150.002 Q 2616 136.51 2611.51 127.865 A 26.33 26.33 0 0 0 2603.4 118.402 A 40.448 40.448 0 0 0 2592.368 113.006 Q 2582.028 109.63 2567.052 109.416 A 143.413 143.413 0 0 0 2565 109.402 L 2532.2 109.402 A 116.807 116.807 0 0 0 2518.982 110.095 Q 2500.775 112.177 2492.3 120.502 A 30.573 30.573 0 0 0 2485.638 130.766 Q 2481 141.952 2481 160.402 L 2481 205.602 Q 2481 233.802 2492.3 245.102 Q 2502.519 255.32 2526.884 256.298 A 132.619 132.619 0 0 0 2532.2 256.402 Z M 1989.8 266.802 L 1989.8 98.802 Q 1989.8 90.544 1996.484 88.843 A 15.915 15.915 0 0 1 2000.4 88.402 A 14.972 14.972 0 0 1 2004.516 88.917 Q 2010.8 90.717 2010.8 98.802 L 2010.8 118.002 A 59.297 59.297 0 0 1 2041.921 94.067 Q 2052.598 90.261 2065.937 89.012 A 146.675 146.675 0 0 1 2079.6 88.402 L 2090.8 88.402 A 128.691 128.691 0 0 1 2110.248 89.77 Q 2120.543 91.348 2128.724 94.745 A 51.096 51.096 0 0 1 2145.5 105.702 A 52.178 52.178 0 0 1 2157.327 124.686 Q 2160.406 132.943 2161.753 143.211 A 132.427 132.427 0 0 1 2162.8 160.402 L 2162.8 266.802 A 15.624 15.624 0 0 1 2162.303 270.932 Q 2161.005 275.658 2156.319 276.932 A 14.96 14.96 0 0 1 2152.4 277.402 A 15.26 15.26 0 0 1 2148.206 276.876 Q 2141.8 275.041 2141.8 266.802 L 2141.8 160.402 Q 2141.8 131.802 2130.5 120.602 A 31.452 31.452 0 0 0 2120.17 113.998 Q 2110.664 110.088 2096.081 109.504 A 131.992 131.992 0 0 0 2090.8 109.402 L 2079.6 109.402 Q 2048.6 109.402 2030.8 119.202 A 38.412 38.412 0 0 0 2017.257 131.217 Q 2012.521 138.181 2011.1 147.482 A 50.574 50.574 0 0 0 2010.8 149.802 L 2010.8 266.802 A 15.624 15.624 0 0 1 2010.303 270.932 Q 2009.005 275.658 2004.319 276.932 A 14.96 14.96 0 0 1 2000.4 277.402 A 15.26 15.26 0 0 1 1996.206 276.876 Q 1989.8 275.041 1989.8 266.802 Z M 1829 277.402 L 1806.6 277.402 Q 1787.358 277.402 1774.467 271.886 A 42.659 42.659 0 0 1 1760.9 262.902 A 43.941 43.941 0 0 1 1750.862 246.676 Q 1746.4 234.508 1746.4 217.202 A 105.742 105.742 0 0 1 1747.62 200.551 Q 1750.621 181.781 1761 171.402 A 44.513 44.513 0 0 1 1777.599 161.168 Q 1784.659 158.61 1793.402 157.55 A 109.905 109.905 0 0 1 1806.6 156.802 L 1897.6 156.802 A 96.516 96.516 0 0 0 1896.605 143.898 Q 1894.45 129.628 1887.699 121.942 A 25.926 25.926 0 0 0 1885.7 119.902 A 32.782 32.782 0 0 0 1875.356 113.711 Q 1865.796 109.991 1851.312 109.482 A 134.306 134.306 0 0 0 1846.6 109.402 L 1823.4 109.402 A 190.266 190.266 0 0 0 1810.527 109.805 Q 1794.774 110.878 1786.2 114.802 A 24.558 24.558 0 0 0 1772.445 130.059 A 31.553 31.553 0 0 0 1771.6 133.202 A 27.227 27.227 0 0 1 1770.641 136.055 Q 1770.099 137.397 1769.463 138.458 A 10.524 10.524 0 0 1 1767.9 140.502 A 6.93 6.93 0 0 1 1765.371 142.074 Q 1763.413 142.802 1760.6 142.802 Q 1756.147 142.802 1753.381 140.674 A 9.013 9.013 0 0 1 1752.5 139.902 A 7.68 7.68 0 0 1 1750.268 134.989 Q 1750.144 133.603 1750.4 132.002 A 49.897 49.897 0 0 1 1754.4 116.93 A 39.296 39.296 0 0 1 1771.1 98.802 Q 1788.838 88.61 1822.038 88.406 A 221.775 221.775 0 0 1 1823.4 88.402 L 1846.6 88.402 A 128.691 128.691 0 0 1 1866.048 89.77 Q 1876.343 91.348 1884.524 94.745 A 51.096 51.096 0 0 1 1901.3 105.702 A 52.178 52.178 0 0 1 1913.127 124.686 Q 1916.206 132.943 1917.553 143.211 A 132.427 132.427 0 0 1 1918.6 160.402 L 1918.6 266.802 A 15.624 15.624 0 0 1 1918.103 270.932 Q 1916.805 275.658 1912.119 276.932 A 14.96 14.96 0 0 1 1908.2 277.402 A 15.26 15.26 0 0 1 1904.006 276.876 Q 1897.6 275.041 1897.6 266.802 L 1897.6 247.002 Q 1878.4 277.402 1829 277.402 Z M 1806.6 256.402 L 1829 256.402 A 149.257 149.257 0 0 0 1845.076 255.579 Q 1853.536 254.661 1860.878 252.72 A 88.262 88.262 0 0 0 1863.1 252.102 A 59.289 59.289 0 0 0 1875.629 246.906 A 46.504 46.504 0 0 0 1886.8 238.202 Q 1895.8 228.602 1897.6 212.602 L 1897.6 177.802 L 1806.6 177.802 Q 1784.4 177.802 1775.9 186.302 A 23.065 23.065 0 0 0 1771.061 193.788 Q 1768.062 200.926 1767.52 212.082 A 105.561 105.561 0 0 0 1767.4 217.202 A 91.435 91.435 0 0 0 1767.932 227.445 Q 1769.525 241.527 1775.9 247.902 Q 1784.4 256.402 1806.6 256.402 Z M 2304.6 277.402 L 2282.2 277.402 Q 2262.958 277.402 2250.067 271.886 A 42.659 42.659 0 0 1 2236.5 262.902 A 43.941 43.941 0 0 1 2226.462 246.676 Q 2222 234.508 2222 217.202 A 105.742 105.742 0 0 1 2223.22 200.551 Q 2226.221 181.781 2236.6 171.402 A 44.513 44.513 0 0 1 2253.199 161.168 Q 2260.259 158.61 2269.002 157.55 A 109.905 109.905 0 0 1 2282.2 156.802 L 2373.2 156.802 A 96.516 96.516 0 0 0 2372.205 143.898 Q 2370.05 129.628 2363.299 121.942 A 25.926 25.926 0 0 0 2361.3 119.902 A 32.782 32.782 0 0 0 2350.956 113.711 Q 2341.396 109.991 2326.912 109.482 A 134.306 134.306 0 0 0 2322.2 109.402 L 2299 109.402 A 190.266 190.266 0 0 0 2286.127 109.805 Q 2270.374 110.878 2261.8 114.802 A 24.558 24.558 0 0 0 2248.045 130.059 A 31.553 31.553 0 0 0 2247.2 133.202 A 27.227 27.227 0 0 1 2246.241 136.055 Q 2245.699 137.397 2245.063 138.458 A 10.524 10.524 0 0 1 2243.5 140.502 A 6.93 6.93 0 0 1 2240.971 142.074 Q 2239.013 142.802 2236.2 142.802 Q 2231.747 142.802 2228.981 140.674 A 9.013 9.013 0 0 1 2228.1 139.902 A 7.68 7.68 0 0 1 2225.868 134.989 Q 2225.744 133.603 2226 132.002 A 49.897 49.897 0 0 1 2230 116.93 A 39.296 39.296 0 0 1 2246.7 98.802 Q 2264.438 88.61 2297.638 88.406 A 221.775 221.775 0 0 1 2299 88.402 L 2322.2 88.402 A 128.691 128.691 0 0 1 2341.648 89.77 Q 2351.943 91.348 2360.124 94.745 A 51.096 51.096 0 0 1 2376.9 105.702 A 52.178 52.178 0 0 1 2388.727 124.686 Q 2391.806 132.943 2393.153 143.211 A 132.427 132.427 0 0 1 2394.2 160.402 L 2394.2 266.802 A 15.624 15.624 0 0 1 2393.703 270.932 Q 2392.405 275.658 2387.719 276.932 A 14.96 14.96 0 0 1 2383.8 277.402 A 15.26 15.26 0 0 1 2379.606 276.876 Q 2373.2 275.041 2373.2 266.802 L 2373.2 247.002 Q 2354 277.402 2304.6 277.402 Z M 2282.2 256.402 L 2304.6 256.402 A 149.257 149.257 0 0 0 2320.676 255.579 Q 2329.136 254.661 2336.478 252.72 A 88.262 88.262 0 0 0 2338.7 252.102 A 59.289 59.289 0 0 0 2351.229 246.906 A 46.504 46.504 0 0 0 2362.4 238.202 Q 2371.4 228.602 2373.2 212.602 L 2373.2 177.802 L 2282.2 177.802 Q 2260 177.802 2251.5 186.302 A 23.065 23.065 0 0 0 2246.661 193.788 Q 2243.662 200.926 2243.12 212.082 A 105.561 105.561 0 0 0 2243 217.202 A 91.435 91.435 0 0 0 2243.532 227.445 Q 2245.125 241.527 2251.5 247.902 Q 2260 256.402 2282.2 256.402 Z M 2869.4 191.002 L 2723.8 191.002 L 2723.8 205.602 Q 2723.8 233.802 2735.1 245.102 Q 2745.319 255.32 2769.684 256.298 A 132.619 132.619 0 0 0 2775 256.402 L 2807.8 256.402 A 156.208 156.208 0 0 0 2820.221 255.943 Q 2832.499 254.96 2840.334 251.869 A 33.282 33.282 0 0 0 2844.5 249.902 A 25.774 25.774 0 0 0 2856.209 235.702 A 40.411 40.411 0 0 0 2858.2 227.402 A 20.233 20.233 0 0 1 2858.93 224.313 Q 2859.463 222.681 2860.254 221.413 A 9.779 9.779 0 0 1 2861.5 219.802 Q 2863.517 217.704 2867.291 217.299 A 17.893 17.893 0 0 1 2869.2 217.202 A 14.89 14.89 0 0 1 2872.275 217.499 Q 2875.265 218.13 2877.1 220.102 Q 2879.8 223.002 2879.2 228.202 Q 2876.6 253.402 2859 265.402 Q 2841.4 277.402 2807.8 277.402 L 2775 277.402 Q 2752.141 277.402 2736.754 270.939 A 51.362 51.362 0 0 1 2720.2 260.102 Q 2702.8 242.802 2702.8 205.602 L 2702.8 160.402 Q 2702.8 137.672 2709.092 122.354 A 51.03 51.03 0 0 1 2720.2 105.302 A 51.898 51.898 0 0 1 2739.536 93.45 Q 2753.571 88.393 2773.32 88.393 A 157.109 157.109 0 0 1 2775 88.402 L 2807.8 88.402 A 128.691 128.691 0 0 1 2827.248 89.77 Q 2837.543 91.348 2845.724 94.745 A 51.096 51.096 0 0 1 2862.5 105.702 A 52.178 52.178 0 0 1 2874.327 124.686 Q 2877.406 132.943 2878.753 143.211 A 132.427 132.427 0 0 1 2879.8 160.402 L 2879.8 180.402 A 15.624 15.624 0 0 1 2879.303 184.532 Q 2878.005 189.258 2873.319 190.532 A 14.96 14.96 0 0 1 2869.4 191.002 Z M 2807.8 109.402 L 2775 109.402 Q 2749.511 109.045 2737.763 117.982 A 26.14 26.14 0 0 0 2735.1 120.302 Q 2724.882 130.52 2723.904 155.049 A 134.424 134.424 0 0 0 2723.8 160.402 L 2723.8 170.002 L 2858.8 170.002 L 2858.8 160.402 Q 2858.8 136.468 2850.957 124.719 A 27.002 27.002 0 0 0 2847.6 120.602 A 31.022 31.022 0 0 0 2837.303 113.998 Q 2827.891 110.129 2813.419 109.517 A 133.033 133.033 0 0 0 2807.8 109.402 Z M 462.4 277.402 L 447.2 277.402 A 127.316 127.316 0 0 1 427.25 275.948 Q 416.888 274.299 408.675 270.783 A 51.207 51.207 0 0 1 392.4 260.002 A 52.739 52.739 0 0 1 380.354 240.539 Q 377.343 232.331 376.025 222.176 A 132.182 132.182 0 0 1 375 205.202 L 375 160.402 A 127.155 127.155 0 0 1 376.454 140.459 Q 378.075 130.283 381.501 122.192 A 50.936 50.936 0 0 1 392.4 105.702 A 52.58 52.58 0 0 1 411.454 93.875 Q 419.728 90.796 430.004 89.449 A 132.568 132.568 0 0 1 447.2 88.402 L 531 88.402 L 531 10.402 Q 531 2.144 537.684 0.443 A 15.915 15.915 0 0 1 541.6 0.002 A 14.972 14.972 0 0 1 545.716 0.517 Q 552 2.317 552 10.402 L 552 266.802 A 15.624 15.624 0 0 1 551.503 270.932 Q 550.205 275.658 545.519 276.932 A 14.96 14.96 0 0 1 541.6 277.402 A 15.26 15.26 0 0 1 537.406 276.876 Q 531 275.041 531 266.802 L 531 249.602 A 51.266 51.266 0 0 1 511.27 267.794 A 64.896 64.896 0 0 1 505.8 270.402 Q 493.74 275.488 476.294 276.878 A 175.131 175.131 0 0 1 462.4 277.402 Z M 447.2 256.402 L 462.4 256.402 A 160.308 160.308 0 0 0 481.952 255.284 Q 499.883 253.076 512.3 246.502 A 39.764 39.764 0 0 0 522.559 238.939 Q 530.737 230.381 530.992 217.629 A 41.28 41.28 0 0 0 531 216.802 L 531 109.402 L 447.2 109.402 Q 423.054 109.402 411.24 117.456 A 27.285 27.285 0 0 0 407.3 120.702 Q 396.978 131.024 396.085 155.615 A 131.937 131.937 0 0 0 396 160.402 L 396 205.202 A 114.761 114.761 0 0 0 396.707 218.42 Q 398.386 232.846 404.055 241.162 A 27.285 27.285 0 0 0 407.3 245.102 Q 417.519 255.32 441.884 256.298 A 132.619 132.619 0 0 0 447.2 256.402 Z M 705.2 277.402 L 690 277.402 A 127.316 127.316 0 0 1 670.05 275.948 Q 659.688 274.299 651.475 270.783 A 51.207 51.207 0 0 1 635.2 260.002 A 52.739 52.739 0 0 1 623.154 240.539 Q 620.143 232.331 618.825 222.176 A 132.182 132.182 0 0 1 617.8 205.202 L 617.8 160.402 A 127.155 127.155 0 0 1 619.254 140.459 Q 620.875 130.283 624.301 122.192 A 50.936 50.936 0 0 1 635.2 105.702 A 52.58 52.58 0 0 1 654.254 93.875 Q 662.528 90.796 672.804 89.449 A 132.568 132.568 0 0 1 690 88.402 L 773.8 88.402 L 773.8 10.402 Q 773.8 2.144 780.484 0.443 A 15.915 15.915 0 0 1 784.4 0.002 A 14.972 14.972 0 0 1 788.516 0.517 Q 794.8 2.317 794.8 10.402 L 794.8 266.802 A 15.624 15.624 0 0 1 794.303 270.932 Q 793.005 275.658 788.319 276.932 A 14.96 14.96 0 0 1 784.4 277.402 A 15.26 15.26 0 0 1 780.206 276.876 Q 773.8 275.041 773.8 266.802 L 773.8 249.602 A 51.266 51.266 0 0 1 754.07 267.794 A 64.896 64.896 0 0 1 748.6 270.402 Q 736.54 275.488 719.094 276.878 A 175.131 175.131 0 0 1 705.2 277.402 Z M 690 256.402 L 705.2 256.402 A 160.308 160.308 0 0 0 724.752 255.284 Q 742.683 253.076 755.1 246.502 A 39.764 39.764 0 0 0 765.359 238.939 Q 773.537 230.381 773.792 217.629 A 41.28 41.28 0 0 0 773.8 216.802 L 773.8 109.402 L 690 109.402 Q 665.854 109.402 654.04 117.456 A 27.285 27.285 0 0 0 650.1 120.702 Q 639.778 131.024 638.885 155.615 A 131.937 131.937 0 0 0 638.8 160.402 L 638.8 205.202 A 114.761 114.761 0 0 0 639.507 218.42 Q 641.186 232.846 646.855 241.162 A 27.285 27.285 0 0 0 650.1 245.102 Q 660.319 255.32 684.684 256.298 A 132.619 132.619 0 0 0 690 256.402 Z M 965.2 266.802 L 965.2 109.402 L 948.4 109.402 A 15.26 15.26 0 0 1 944.206 108.876 Q 937.8 107.041 937.8 98.802 Q 937.8 90.544 944.484 88.843 A 15.915 15.915 0 0 1 948.4 88.402 L 965.2 88.402 L 965.2 70.802 A 126.027 126.027 0 0 1 966.553 51.668 Q 970.01 29.22 982.3 17.002 Q 995.192 4.185 1019.281 1.031 A 130.582 130.582 0 0 1 1036.2 0.002 A 14.378 14.378 0 0 1 1040.268 0.526 Q 1044.772 1.856 1045.968 6.559 A 15.62 15.62 0 0 1 1046.4 10.402 A 15.914 15.914 0 0 1 1045.912 14.532 Q 1044.467 19.897 1038.741 20.813 A 16.098 16.098 0 0 1 1036.2 21.002 A 113.91 113.91 0 0 0 1023.263 21.683 Q 1009.325 23.282 1001.242 28.635 A 26.529 26.529 0 0 0 997.2 31.902 Q 987.315 41.697 986.313 65.302 A 129.781 129.781 0 0 0 986.2 70.802 L 986.2 88.402 L 1035.8 88.402 A 15.624 15.624 0 0 1 1039.931 88.899 Q 1044.657 90.198 1045.93 94.883 A 14.96 14.96 0 0 1 1046.4 98.802 A 15.26 15.26 0 0 1 1045.875 102.996 Q 1044.04 109.402 1035.8 109.402 L 986.2 109.402 L 986.2 266.802 A 15.624 15.624 0 0 1 985.703 270.932 Q 984.405 275.658 979.719 276.932 A 14.96 14.96 0 0 1 975.8 277.402 A 15.26 15.26 0 0 1 971.606 276.876 Q 965.2 275.041 965.2 266.802 Z M 2949.2 266.802 L 2949.2 98.802 Q 2949.2 90.544 2955.884 88.843 A 15.915 15.915 0 0 1 2959.8 88.402 A 14.972 14.972 0 0 1 2963.916 88.917 Q 2970.2 90.717 2970.2 98.802 L 2970.2 129.602 Q 2980.6 109.602 3000.3 99.002 A 86.669 86.669 0 0 1 3026.268 90.151 A 117.505 117.505 0 0 1 3047 88.402 A 15.624 15.624 0 0 1 3051.131 88.899 Q 3055.857 90.198 3057.13 94.883 A 14.96 14.96 0 0 1 3057.6 98.802 A 15.26 15.26 0 0 1 3057.075 102.996 Q 3055.24 109.402 3047 109.402 Q 3021.895 109.402 3004.747 117.408 A 60.825 60.825 0 0 0 2991.8 125.502 A 57.466 57.466 0 0 0 2972.326 157.255 A 83.022 83.022 0 0 0 2970.2 171.402 L 2970.2 266.802 A 15.624 15.624 0 0 1 2969.703 270.932 Q 2968.405 275.658 2963.719 276.932 A 14.96 14.96 0 0 1 2959.8 277.402 A 15.26 15.26 0 0 1 2955.606 276.876 Q 2949.2 275.041 2949.2 266.802 Z M 284.6 266.802 L 284.6 98.802 Q 284.6 90.544 291.284 88.843 A 15.915 15.915 0 0 1 295.2 88.402 A 14.972 14.972 0 0 1 299.316 88.917 Q 305.6 90.717 305.6 98.802 L 305.6 266.802 A 15.624 15.624 0 0 1 305.103 270.932 Q 303.805 275.658 299.119 276.932 A 14.96 14.96 0 0 1 295.2 277.402 A 15.26 15.26 0 0 1 291.006 276.876 Q 284.6 275.041 284.6 266.802 Z M 866 266.802 L 866 98.802 Q 866 90.544 872.684 88.843 A 15.915 15.915 0 0 1 876.6 88.402 A 14.972 14.972 0 0 1 880.716 88.917 Q 887 90.717 887 98.802 L 887 266.802 A 15.624 15.624 0 0 1 886.503 270.932 Q 885.205 275.658 880.519 276.932 A 14.96 14.96 0 0 1 876.6 277.402 A 15.26 15.26 0 0 1 872.406 276.876 Q 866 275.041 866 266.802 Z M 299.6 52.002 L 290.6 52.002 A 19.247 19.247 0 0 1 285.066 51.276 Q 278.964 49.442 277.367 42.971 A 21.621 21.621 0 0 1 276.8 37.802 L 276.8 28.802 A 19.866 19.866 0 0 1 277.485 23.34 Q 279.239 17.217 285.49 15.59 A 20.331 20.331 0 0 1 290.6 15.002 L 299.6 15.002 A 18.668 18.668 0 0 1 304.979 15.708 Q 310.901 17.492 312.451 23.779 A 21.031 21.031 0 0 1 313 28.802 L 313 37.802 Q 313 52.002 299.6 52.002 Z M 881 52.002 L 872 52.002 A 19.247 19.247 0 0 1 866.466 51.276 Q 860.364 49.442 858.767 42.971 A 21.621 21.621 0 0 1 858.2 37.802 L 858.2 28.802 A 19.866 19.866 0 0 1 858.885 23.34 Q 860.639 17.217 866.89 15.59 A 20.331 20.331 0 0 1 872 15.002 L 881 15.002 A 18.668 18.668 0 0 1 886.379 15.708 Q 892.301 17.492 893.851 23.779 A 21.031 21.031 0 0 1 894.4 28.802 L 894.4 37.802 Q 894.4 52.002 881 52.002 Z" vector-effect="non-scaling-stroke"/></g>

</svg>
