<svg width="338" height="92" viewBox="0 0 338 92" fill="none" xmlns="http://www.w3.org/2000/svg">
<path d="M40.325 4.02702C43.8367 1.99954 48.1633 1.99954 51.675 4.02702L79.5122 20.0988C83.0239 22.1263 85.1872 25.8732 85.1872 29.9282V62.0718C85.1872 66.1268 83.0239 69.8737 79.5122 71.9012L51.675 87.973C48.1633 90.0005 43.8367 90.0005 40.325 87.973L12.4878 71.9012C8.97613 69.8737 6.81283 66.1268 6.81283 62.0718L6.81283 29.9282C6.81283 25.8732 8.97613 22.1263 12.4878 20.0988L40.325 4.02702Z" fill="white" stroke="#455FE9" stroke-width="1.3"/>
<path fill-rule="evenodd" clip-rule="evenodd" d="M54.9846 30.1151C54.6676 30.3054 54.4737 30.648 54.4737 31.0177V34.6315C54.4737 35.2128 54.9451 35.6841 55.5263 35.6841H63.9474C64.5286 35.6841 65 35.2128 65 34.6315V25.9644C65 25.1462 64.1074 24.6408 63.4057 25.0618L54.9846 30.1151ZM40.2479 38.5367C39.9308 38.7269 39.7368 39.0695 39.7368 39.4393V49.3697L39.7368 50.4221L39.7368 50.4223L39.7368 52.5263C39.7368 53.1076 39.2656 53.5789 38.6842 53.5789H36.5789C35.9976 53.5789 35.5263 53.1076 35.5263 52.5263V50.4221V43.8597C35.5263 43.0414 34.6337 42.5361 33.9321 42.9571L25.511 48.0103C25.194 48.2006 25 48.5432 25 48.913V59.896C25 60.4773 25.4713 60.9486 26.0526 60.9486H34.4737C35.055 60.9486 35.5263 60.4773 35.5263 59.896V58.8431V56.7379C35.5263 56.1564 35.9976 55.6852 36.5789 55.6852H38.6842C39.2656 55.6852 39.7368 56.1564 39.7368 56.7379V58.8431L39.7368 59.896C39.7368 60.4773 40.2081 60.9486 40.7895 60.9486H49.2105C49.7918 60.9486 50.2632 60.4773 50.2632 59.896V50.4223V49.3697V34.386C50.2632 33.5677 49.3705 33.0624 48.6688 33.4834L40.2479 38.5367ZM54.4737 59.8958V38.8431C54.4737 38.2618 54.945 37.7905 55.5263 37.7905H63.9474C64.5287 37.7905 65 38.2618 65 38.8431V59.8958C65 60.4771 64.5287 60.9484 63.9474 60.9484H55.5263C54.945 60.9484 54.4737 60.4771 54.4737 59.8958Z" fill="#455FE9"/>
<path d="M101.552 58C101.328 58 101.157 57.9467 101.04 57.84C100.933 57.7227 100.88 57.552 100.88 57.328V38.416C100.88 38.192 100.933 38.0267 101.04 37.92C101.157 37.8027 101.328 37.744 101.552 37.744C101.776 37.744 101.941 37.8027 102.048 37.92C102.165 38.0267 102.224 38.192 102.224 38.416V47.056H115.76V38.416C115.76 38.192 115.813 38.0267 115.92 37.92C116.037 37.8027 116.208 37.744 116.432 37.744C116.656 37.744 116.821 37.8027 116.928 37.92C117.045 38.0267 117.104 38.192 117.104 38.416V57.328C117.104 57.552 117.045 57.7227 116.928 57.84C116.821 57.9467 116.656 58 116.432 58C116.208 58 116.037 57.9467 115.92 57.84C115.813 57.7227 115.76 57.552 115.76 57.328V48.4H102.224V57.328C102.224 57.552 102.165 57.7227 102.048 57.84C101.941 57.9467 101.776 58 101.552 58ZM123.185 40.24C122.545 40.24 122.225 39.9093 122.225 39.248V38.592C122.225 37.952 122.545 37.632 123.185 37.632H123.841C124.47 37.632 124.785 37.952 124.785 38.592V39.248C124.785 39.9093 124.47 40.24 123.841 40.24H123.185ZM123.521 58C123.073 58 122.849 57.776 122.849 57.328V43.92C122.849 43.472 123.073 43.248 123.521 43.248C123.969 43.248 124.193 43.472 124.193 43.92V57.328C124.193 57.776 123.969 58 123.521 58ZM135.223 58C133.271 58 131.847 57.5573 130.951 56.672C130.065 55.776 129.623 54.352 129.623 52.4V48.848C129.623 46.896 130.065 45.4773 130.951 44.592C131.847 43.696 133.271 43.248 135.223 43.248H142.103V36.592C142.103 36.144 142.327 35.92 142.775 35.92C143.223 35.92 143.447 36.144 143.447 36.592V57.328C143.447 57.776 143.223 58 142.775 58C142.327 58 142.103 57.776 142.103 57.328V55.568C141.655 56.368 140.972 56.976 140.055 57.392C139.148 57.7973 137.943 58 136.439 58H135.223ZM135.223 56.656H136.439C138.188 56.656 139.569 56.368 140.583 55.792C141.596 55.2053 142.103 54.3307 142.103 53.168V44.592H135.223C133.655 44.592 132.551 44.912 131.911 45.552C131.281 46.1813 130.967 47.28 130.967 48.848V52.4C130.967 53.968 131.281 55.072 131.911 55.712C132.551 56.3413 133.655 56.656 135.223 56.656ZM154.191 58C152.239 58 150.815 57.5573 149.919 56.672C149.034 55.776 148.591 54.352 148.591 52.4V48.848C148.591 46.896 149.034 45.4773 149.919 44.592C150.815 43.696 152.239 43.248 154.191 43.248H161.071V36.592C161.071 36.144 161.295 35.92 161.743 35.92C162.191 35.92 162.415 36.144 162.415 36.592V57.328C162.415 57.776 162.191 58 161.743 58C161.295 58 161.071 57.776 161.071 57.328V55.568C160.623 56.368 159.941 56.976 159.023 57.392C158.117 57.7973 156.911 58 155.407 58H154.191ZM154.191 56.656H155.407C157.157 56.656 158.538 56.368 159.551 55.792C160.565 55.2053 161.071 54.3307 161.071 53.168V44.592H154.191C152.623 44.592 151.519 44.912 150.879 45.552C150.25 46.1813 149.935 47.28 149.935 48.848V52.4C149.935 53.968 150.25 55.072 150.879 55.712C151.519 56.3413 152.623 56.656 154.191 56.656ZM168.216 40.24C167.576 40.24 167.256 39.9093 167.256 39.248V38.592C167.256 37.952 167.576 37.632 168.216 37.632H168.872C169.501 37.632 169.816 37.952 169.816 38.592V39.248C169.816 39.9093 169.501 40.24 168.872 40.24H168.216ZM168.552 58C168.104 58 167.88 57.776 167.88 57.328V43.92C167.88 43.472 168.104 43.248 168.552 43.248C169 43.248 169.224 43.472 169.224 43.92V57.328C169.224 57.776 169 58 168.552 58ZM175.806 58C175.358 58 175.134 57.776 175.134 57.328V44.592H173.726C173.278 44.592 173.054 44.368 173.054 43.92C173.054 43.472 173.278 43.248 173.726 43.248H175.134V41.424C175.134 39.504 175.571 38.1067 176.446 37.232C177.32 36.3573 178.718 35.92 180.638 35.92C181.107 35.92 181.342 36.144 181.342 36.592C181.342 37.04 181.107 37.264 180.638 37.264C179.102 37.264 178.024 37.5733 177.406 38.192C176.787 38.8107 176.478 39.888 176.478 41.424V43.248H180.67C181.118 43.248 181.342 43.472 181.342 43.92C181.342 44.368 181.118 44.592 180.67 44.592H176.478V57.328C176.478 57.776 176.254 58 175.806 58ZM188.497 64.4C187.142 64.4 186.145 64.08 185.505 63.44C184.875 62.8107 184.561 61.808 184.561 60.432C184.561 59.984 184.785 59.76 185.233 59.76C185.681 59.76 185.905 59.984 185.905 60.432C185.905 61.4347 186.091 62.1227 186.465 62.496C186.849 62.8693 187.526 63.056 188.497 63.056H193.809C194.79 63.056 195.467 62.8693 195.841 62.496C196.214 62.1227 196.401 61.4347 196.401 60.432V55.92C195.814 56.6667 195.046 57.2053 194.097 57.536C193.158 57.8667 192.038 58.032 190.737 58.032H190.065C188.145 58.032 186.747 57.5947 185.873 56.72C184.998 55.8453 184.561 54.4587 184.561 52.56V43.888C184.561 43.44 184.785 43.216 185.233 43.216C185.681 43.216 185.905 43.44 185.905 43.888V52.56C185.905 54.096 186.209 55.168 186.817 55.776C187.435 56.384 188.518 56.688 190.065 56.688H190.737C192.646 56.688 194.065 56.3467 194.993 55.664C195.931 54.9707 196.401 53.936 196.401 52.56V43.888C196.401 43.44 196.625 43.216 197.073 43.216C197.521 43.216 197.745 43.44 197.745 43.888V60.432C197.745 61.808 197.43 62.8107 196.801 63.44C196.171 64.08 195.174 64.4 193.809 64.4H188.497ZM211.552 58C211.104 58 210.88 57.776 210.88 57.328V38.416C210.88 37.968 211.104 37.744 211.552 37.744C211.904 37.744 212.171 37.8933 212.352 38.192L220.448 50.64L220.128 50.672L228.224 38.192C228.405 37.8933 228.672 37.744 229.024 37.744C229.451 37.744 229.664 37.968 229.664 38.416V57.328C229.664 57.776 229.44 58 228.992 58C228.544 58 228.32 57.776 228.32 57.328V39.76L228.704 39.888L221.088 51.6C220.907 51.8987 220.64 52.048 220.288 52.048C219.936 52.048 219.669 51.8987 219.488 51.6L211.872 39.888L212.224 40.048V57.328C212.224 57.776 212 58 211.552 58ZM239.731 58C238.121 58 236.942 57.632 236.195 56.896C235.459 56.1493 235.091 54.9707 235.091 53.36C235.091 51.7387 235.465 50.5547 236.211 49.808C236.958 49.0613 238.131 48.688 239.731 48.688H247.187C247.177 47.184 246.851 46.128 246.211 45.52C245.571 44.9013 244.478 44.592 242.931 44.592H241.075C239.625 44.592 238.569 44.7627 237.907 45.104C237.246 45.4347 236.851 46 236.723 46.8C236.691 47.0027 236.622 47.1627 236.515 47.28C236.419 47.3867 236.265 47.44 236.051 47.44C235.827 47.44 235.657 47.3813 235.539 47.264C235.422 47.136 235.369 46.96 235.379 46.736C235.465 45.52 235.977 44.6347 236.915 44.08C237.865 43.5253 239.251 43.248 241.075 43.248H242.931C244.883 43.248 246.302 43.696 247.187 44.592C248.083 45.4773 248.531 46.896 248.531 48.848V57.328C248.531 57.776 248.307 58 247.859 58C247.411 58 247.187 57.776 247.187 57.328V55.44C246.206 57.1467 244.318 58 241.523 58H239.731ZM239.731 56.656H241.523C242.643 56.656 243.609 56.528 244.419 56.272C245.241 56.016 245.886 55.6107 246.355 55.056C246.835 54.5013 247.113 53.776 247.187 52.88V50.032H239.731C238.505 50.032 237.646 50.2773 237.155 50.768C236.675 51.248 236.435 52.112 236.435 53.36C236.435 54.5867 236.675 55.4453 237.155 55.936C237.646 56.416 238.505 56.656 239.731 56.656ZM254.677 58C254.229 58 254.005 57.776 254.005 57.328V43.92C254.005 43.472 254.229 43.248 254.677 43.248C255.125 43.248 255.349 43.472 255.349 43.92V45.776C256.32 44.0907 258.208 43.248 261.013 43.248H261.909C263.861 43.248 265.28 43.696 266.165 44.592C267.061 45.4773 267.509 46.896 267.509 48.848V57.328C267.509 57.776 267.285 58 266.837 58C266.389 58 266.165 57.776 266.165 57.328V48.848C266.165 47.28 265.845 46.1813 265.205 45.552C264.576 44.912 263.477 44.592 261.909 44.592H261.013C259.242 44.592 257.882 44.896 256.933 45.504C255.984 46.1013 255.456 47.0347 255.349 48.304V57.328C255.349 57.776 255.125 58 254.677 58ZM276.669 58C275.058 58 273.879 57.632 273.133 56.896C272.397 56.1493 272.029 54.9707 272.029 53.36C272.029 51.7387 272.402 50.5547 273.149 49.808C273.895 49.0613 275.069 48.688 276.669 48.688H284.125C284.114 47.184 283.789 46.128 283.149 45.52C282.509 44.9013 281.415 44.592 279.869 44.592H278.013C276.562 44.592 275.506 44.7627 274.845 45.104C274.183 45.4347 273.789 46 273.661 46.8C273.629 47.0027 273.559 47.1627 273.453 47.28C273.357 47.3867 273.202 47.44 272.989 47.44C272.765 47.44 272.594 47.3813 272.477 47.264C272.359 47.136 272.306 46.96 272.317 46.736C272.402 45.52 272.914 44.6347 273.853 44.08C274.802 43.5253 276.189 43.248 278.013 43.248H279.869C281.821 43.248 283.239 43.696 284.125 44.592C285.021 45.4773 285.469 46.896 285.469 48.848V57.328C285.469 57.776 285.245 58 284.797 58C284.349 58 284.125 57.776 284.125 57.328V55.44C283.143 57.1467 281.255 58 278.461 58H276.669ZM276.669 56.656H278.461C279.581 56.656 280.546 56.528 281.357 56.272C282.178 56.016 282.823 55.6107 283.293 55.056C283.773 54.5013 284.05 53.776 284.125 52.88V50.032H276.669C275.442 50.032 274.583 50.2773 274.093 50.768C273.613 51.248 273.373 52.112 273.373 53.36C273.373 54.5867 273.613 55.4453 274.093 55.936C274.583 56.416 275.442 56.656 276.669 56.656ZM294.559 64.4C293.311 64.4 292.372 64.1387 291.743 63.616C291.113 63.104 290.751 62.288 290.655 61.168C290.644 60.944 290.697 60.768 290.815 60.64C290.932 60.5227 291.092 60.464 291.295 60.464C291.519 60.464 291.689 60.5173 291.807 60.624C291.924 60.7413 291.988 60.912 291.999 61.136C292.063 61.872 292.287 62.3733 292.671 62.64C293.065 62.9173 293.695 63.056 294.559 63.056H300.511C301.503 63.056 302.18 62.8693 302.543 62.496C302.916 62.1333 303.103 61.456 303.103 60.464V55.6C302.644 56.3893 301.956 56.9867 301.039 57.392C300.132 57.7973 298.932 58 297.439 58H296.223C294.271 58 292.847 57.5573 291.951 56.672C291.065 55.776 290.623 54.3627 290.623 52.432V48.848C290.623 46.8747 291.065 45.4507 291.951 44.576C292.847 43.6907 294.271 43.248 296.223 43.248H298.847C299.988 43.248 300.895 43.3973 301.567 43.696C302.239 43.9947 302.751 44.4587 303.103 45.088V43.92C303.103 43.472 303.327 43.248 303.775 43.248C304.223 43.248 304.447 43.472 304.447 43.92V60.464C304.447 61.8187 304.132 62.8107 303.503 63.44C302.873 64.08 301.876 64.4 300.511 64.4H294.559ZM296.223 56.656H297.439C299.188 56.656 300.569 56.368 301.583 55.792C302.596 55.2053 303.103 54.3307 303.103 53.168V48.176C303.103 46.864 302.756 45.9413 302.063 45.408C301.38 44.864 300.308 44.592 298.847 44.592H296.223C294.655 44.592 293.551 44.9067 292.911 45.536C292.281 46.1547 291.967 47.2587 291.967 48.848V52.432C291.967 53.9787 292.281 55.072 292.911 55.712C293.551 56.3413 294.655 56.656 296.223 56.656ZM310.935 51.12V52.432C310.935 53.9787 311.25 55.072 311.879 55.712C312.519 56.3413 313.623 56.656 315.191 56.656H317.815C319.255 56.656 320.295 56.4587 320.935 56.064C321.575 55.6693 321.943 54.992 322.039 54.032C322.061 53.808 322.125 53.6427 322.231 53.536C322.349 53.4187 322.519 53.36 322.743 53.36C322.957 53.36 323.122 53.424 323.239 53.552C323.357 53.6693 323.405 53.84 323.383 54.064C323.277 55.4187 322.77 56.416 321.863 57.056C320.957 57.6853 319.607 58 317.815 58H315.191C313.239 58 311.815 57.5573 310.919 56.672C310.034 55.776 309.591 54.3627 309.591 52.432V48.848C309.591 46.8747 310.034 45.4453 310.919 44.56C311.815 43.664 313.239 43.2267 315.191 43.248H317.815C319.767 43.248 321.186 43.696 322.071 44.592C322.967 45.4773 323.415 46.896 323.415 48.848V50.448C323.415 50.896 323.191 51.12 322.743 51.12H310.935ZM315.191 44.592C313.623 44.5707 312.519 44.88 311.879 45.52C311.25 46.1493 310.935 47.2587 310.935 48.848V49.776H322.071V48.848C322.071 47.28 321.751 46.1813 321.111 45.552C320.482 44.912 319.383 44.592 317.815 44.592H315.191ZM329.521 58C329.073 58 328.849 57.776 328.849 57.328V43.92C328.849 43.472 329.073 43.248 329.521 43.248C329.969 43.248 330.193 43.472 330.193 43.92V46.784C330.726 45.6427 331.526 44.768 332.593 44.16C333.67 43.552 334.961 43.248 336.465 43.248C336.913 43.248 337.137 43.472 337.137 43.92C337.137 44.368 336.913 44.592 336.465 44.592C334.545 44.592 333.051 45.0507 331.985 45.968C330.918 46.8853 330.321 48.2187 330.193 49.968V57.328C330.193 57.776 329.969 58 329.521 58Z" fill="#495057"/>
</svg>
