<!DOCTYPE svg PUBLIC "-//W3C//DTD SVG 1.1//EN" "http://www.w3.org/Graphics/SVG/1.1/DTD/svg11.dtd">

<!-- Uploaded to: SVG Repo, www.svgrepo.com, Transformed by: SVG Repo Mixer Tools -->
<svg fill="#495057" version="1.1" id="Capa_1" xmlns="http://www.w3.org/2000/svg" xmlns:xlink="http://www.w3.org/1999/xlink" width="24px" height="24px" viewBox="0 0 30 30" xml:space="preserve">

<g id="SVGRepo_bgCarrier" stroke-width="0"/>

<g id="SVGRepo_tracerCarrier" stroke-linecap="round" stroke-linejoin="round"/>

<g id="SVGRepo_iconCarrier"> <g> <g> <path d="M4.01,10.99C1.795,10.99,0,12.786,0,15c0,2.215,1.795,4.01,4.01,4.01c2.215,0,4.01-1.795,4.01-4.01 C8.02,12.786,6.225,10.99,4.01,10.99z M4.01,17.229c-1.229,0-2.228-1-2.228-2.229c0-1.229,0.999-2.228,2.228-2.228 S6.238,13.771,6.238,15C6.238,16.229,5.238,17.229,4.01,17.229z"/> <path d="M15,10.99c-2.215,0-4.01,1.795-4.01,4.01s1.795,4.01,4.01,4.01s4.01-1.795,4.01-4.01C19.01,12.786,17.215,10.99,15,10.99z M15,17.229c-1.229,0-2.228-1-2.228-2.229c0-1.229,0.999-2.228,2.228-2.228c1.229,0,2.229,0.999,2.229,2.228 C17.229,16.229,16.229,17.229,15,17.229z"/> <path d="M25.99,10.99c-2.215,0-4.01,1.795-4.01,4.01s1.795,4.01,4.01,4.01S30,17.215,30,15C30,12.786,28.205,10.99,25.99,10.99z M25.99,17.229c-1.229,0-2.227-1-2.227-2.229c0-1.229,0.998-2.228,2.227-2.228s2.228,0.999,2.228,2.228 C28.218,16.229,27.218,17.229,25.99,17.229z"/> </g> </g> </g>

</svg>