<svg width="20" height="20" viewBox="0 0 20 20" fill="none" xmlns="http://www.w3.org/2000/svg">
<g clip-path="url(#clip0_949_8559)">
<path d="M9.99909 0.232422C7.61842 0.231715 5.3156 1.08036 3.5047 2.62574C1.69381 4.17113 0.493646 6.31188 0.120031 8.66305C-0.253585 11.0142 0.223856 13.4215 1.4665 15.4522C2.70915 17.4828 4.63547 19.0035 6.89909 19.7408H7.13242C7.34529 19.7511 7.55404 19.6796 7.71575 19.5408C7.81305 19.456 7.89039 19.3508 7.94226 19.2327C7.99412 19.1145 8.01922 18.9864 8.01575 18.8574V18.6824V17.7741C8.00905 17.72 7.99159 17.6678 7.96439 17.6206C7.9372 17.5733 7.90083 17.532 7.85742 17.4991C7.80999 17.4611 7.75483 17.434 7.69581 17.4196C7.63679 17.4052 7.57534 17.4039 7.51575 17.4158C5.27409 17.8991 4.79909 16.4991 4.77409 16.4074C4.4922 15.6656 3.98887 15.0284 3.33242 14.5824L3.20742 14.4908C3.30582 14.4432 3.41521 14.4231 3.52409 14.4324C3.73178 14.4637 3.92805 14.5474 4.0943 14.6757C4.26055 14.8041 4.39128 14.9727 4.47409 15.1658C4.79646 15.7271 5.32399 16.1415 5.94568 16.3218C6.56737 16.5021 7.23475 16.4342 7.80742 16.1324C7.8693 16.1049 7.92403 16.0636 7.96738 16.0116C8.01073 15.9595 8.04154 15.8982 8.05742 15.8324C8.0912 15.4499 8.25605 15.0908 8.52409 14.8158C8.58588 14.7625 8.63067 14.6922 8.65289 14.6137C8.67511 14.5352 8.67379 14.4519 8.64909 14.3741C8.62633 14.2962 8.58088 14.2269 8.51855 14.1749C8.45621 14.123 8.3798 14.0908 8.29909 14.0824C6.32409 13.8574 4.29909 13.1658 4.29909 9.75742C4.2847 8.90035 4.60105 8.07067 5.18242 7.44076C5.23497 7.38321 5.26995 7.31183 5.28324 7.23505C5.29653 7.15826 5.28757 7.07928 5.25742 7.00742C5.02662 6.35737 5.02957 5.64721 5.26575 4.99909C6.03528 5.1366 6.75762 5.46624 7.36575 5.95742C7.41636 5.99202 7.47424 6.01452 7.53493 6.02319C7.59562 6.03186 7.65748 6.02647 7.71575 6.00742C8.46062 5.80877 9.22818 5.70792 9.99909 5.70742C10.773 5.70375 11.5439 5.80466 12.2908 6.00742C12.3476 6.0264 12.4082 6.03176 12.4675 6.02307C12.5269 6.01439 12.5834 5.9919 12.6324 5.95742C13.2398 5.465 13.9625 5.13521 14.7324 4.99909C14.9613 5.64039 14.9613 6.34112 14.7324 6.98242C14.7023 7.05486 14.6941 7.13457 14.7089 7.21162C14.7237 7.28867 14.7609 7.35966 14.8158 7.41575C15.3881 8.04065 15.701 8.86008 15.6908 9.70742C15.6908 13.1241 13.6658 13.8074 11.6824 14.0241C11.6017 14.0324 11.5253 14.0646 11.463 14.1166C11.4006 14.1685 11.3552 14.2379 11.3324 14.3158C11.3084 14.3923 11.3074 14.4742 11.3297 14.5512C11.3519 14.6283 11.3963 14.6971 11.4574 14.7491C11.6418 14.9415 11.7825 15.1713 11.8703 15.4229C11.958 15.6746 11.9905 15.9421 11.9658 16.2074V18.8574C11.9639 18.987 11.9905 19.1153 12.0438 19.2334C12.0971 19.3515 12.1757 19.4564 12.2741 19.5408C12.3982 19.6353 12.543 19.699 12.6966 19.7266C12.8502 19.7541 13.0082 19.7447 13.1574 19.6991C15.3951 18.9376 17.2907 17.4081 18.5079 15.3819C19.7252 13.3558 20.1853 10.9639 19.8068 8.63073C19.4282 6.29755 18.2355 4.17388 16.4401 2.63648C14.6447 1.09909 12.3627 0.247367 9.99909 0.232422Z" fill="#455FE9"/>
</g>
<defs>
<clipPath id="clip0_949_8559">
<rect width="20" height="20" fill="white"/>
</clipPath>
</defs>
</svg>
