<svg width="48" height="48" viewBox="0 0 48 48" fill="none" xmlns="http://www.w3.org/2000/svg">
<path fill-rule="evenodd" clip-rule="evenodd" d="M11 30.427C11 23.3655 16.8466 17.5938 24.001 17.5938C31.1534 17.5938 37 23.3657 37 30.427L37 32.2344C36.323 33.2344 35.665 33.7344 33.9612 33.7344H14.0388C12.3375 33.7344 11.5065 33.2344 11 32.2344V30.427ZM24.001 20.5938C18.5245 20.5938 14.0388 25.0227 14.0388 30.427L14.0388 33.7344C14.0388 33.7434 17.4574 33.7344 17.4574 33.7344C17.4592 33.7386 19.9897 33.7344 19.9897 33.7344C21.0026 33.7344 22.5219 33.7344 22.5219 33.7344C22.5219 33.7344 24.5389 33.7344 24.5478 33.7344H33.9612C33.9841 33.7344 33.9612 33.7344 33.9612 33.7074L33.9612 30.427C33.9612 25.0225 29.4752 20.5938 24.001 20.5938Z" fill="#6C757D"/>
<path fill-rule="evenodd" clip-rule="evenodd" d="M11 32.2344C11 31.406 11.6803 30.7344 12.5194 30.7344H35.4806C36.3197 30.7344 37 31.406 37 32.2344C37 33.0628 36.3197 33.7344 35.4806 33.7344H12.5194C11.6803 33.7344 11 33.0628 11 32.2344Z" fill="#6C757D"/>
<path fill-rule="evenodd" clip-rule="evenodd" d="M20.5 25.375C21.3284 25.375 22 26.0466 22 26.875V26.895C22 27.7234 21.3284 28.395 20.5 28.395C19.6716 28.395 19 27.7234 19 26.895V26.875C19 26.0466 19.6716 25.375 20.5 25.375ZM28.2838 25.375C29.1122 25.375 29.7838 26.0466 29.7838 26.875V26.895C29.7838 27.7234 29.1122 28.395 28.2838 28.395C27.4554 28.395 26.7838 27.7234 26.7838 26.895V26.875C26.7838 26.0466 27.4554 25.375 28.2838 25.375Z" fill="#6C757D"/>
<path fill-rule="evenodd" clip-rule="evenodd" d="M13.6737 15.2484C14.3651 14.7919 15.2956 14.9824 15.752 15.6737L18.3946 19.6765C18.851 20.3679 18.6605 21.2984 17.9692 21.7548C17.2778 22.2112 16.3474 22.0207 15.891 21.3294L13.2484 17.3266C12.7919 16.6352 12.9824 15.7048 13.6737 15.2484ZM33.4447 15.264C34.1275 15.7333 34.3005 16.6672 33.8311 17.3499L31.0795 21.3527C30.6103 22.0354 29.6765 22.2084 28.9937 21.7391C28.3111 21.2698 28.1381 20.3359 28.6073 19.6533L31.3589 15.6504C31.8281 14.9678 32.7621 14.7948 33.4447 15.264Z" fill="#6C757D"/>
</svg>
