<svg width="48" height="48" viewBox="0 0 48 48" fill="none" xmlns="http://www.w3.org/2000/svg">
<path d="M32.92 42.7872H15.08C8.75998 42.7872 4.5 38.347 4.5 31.747V16.2471C4.5 9.74707 8.83998 5.20703 15.08 5.20703H32.92C39.24 5.20703 43.5 9.64707 43.5 16.2471V31.747C43.5 38.347 39.24 42.7872 32.92 42.7872ZM15.08 8.20703C10.48 8.20703 7.5 11.3671 7.5 16.2471V31.747C7.5 36.627 10.48 39.7872 15.08 39.7872H32.92C37.52 39.7872 40.5 36.627 40.5 31.747V16.2471C40.5 11.3671 37.52 8.20703 32.92 8.20703H15.08Z" fill="#6C757D"/>
<path d="M27.3408 42.7904C26.6408 42.7904 26.0208 42.2908 25.8808 41.5908C25.3408 38.9308 24.9808 36.2704 24.7608 33.6704C24.5208 30.7104 24.5208 28.6704 24.5608 27.7504C23.7408 27.7304 22.9208 27.6508 22.0608 27.5308C19.6808 27.2308 19.2608 25.7306 19.1808 24.3106C19.0408 21.5506 21.0608 10.2506 21.8608 6.41059C22.0208 5.59059 22.8208 5.07045 23.6408 5.25045C24.4608 5.41045 24.9808 6.21071 24.8008 7.03071C23.8208 11.7907 22.0808 22.0508 22.1808 24.1508C22.1808 24.3108 22.2008 24.4308 22.2208 24.5108C22.2808 24.5108 22.3608 24.5308 22.4808 24.5508C23.4808 24.6908 24.3808 24.7504 25.2608 24.7504C26.0008 24.7504 26.5808 24.9706 27.0008 25.4106C27.6408 26.0906 27.6008 26.9308 27.5808 27.6108C27.5608 28.2108 27.5008 30.2706 27.7608 33.4106C27.9608 35.8906 28.3208 38.4306 28.8208 40.9706C28.9808 41.7906 28.4608 42.5704 27.6408 42.7304C27.5408 42.7304 27.4408 42.7504 27.3408 42.7504V42.7904Z" fill="#6C757D"/>
<path d="M23.7004 35.7125C19.9004 35.7125 16.2604 34.3125 13.4404 31.7925C12.8204 31.2325 12.7804 30.2925 13.3204 29.6725C13.8804 29.0525 14.8204 29.0127 15.4404 29.5527C17.7204 31.5927 20.6404 32.7125 23.7004 32.7125C27.0204 32.7125 30.1604 31.4127 32.5204 29.0327C33.1004 28.4527 34.0604 28.4527 34.6404 29.0327C35.2204 29.6127 35.2204 30.5729 34.6404 31.1529C31.7204 34.0929 27.8204 35.7125 23.7004 35.7125Z" fill="#6C757D"/>
<path d="M32.8606 20.334C32.0406 20.334 31.3606 19.654 31.3606 18.834V16.5742C31.3606 15.7542 32.0406 15.0742 32.8606 15.0742C33.6806 15.0742 34.3606 15.7542 34.3606 16.5742V18.834C34.3606 19.654 33.6806 20.334 32.8606 20.334ZM15.1406 20.334C14.3206 20.334 13.6406 19.654 13.6406 18.834V16.5742C13.6406 15.7542 14.3206 15.0742 15.1406 15.0742C15.9606 15.0742 16.6406 15.7542 16.6406 16.5742V18.834C16.6406 19.654 15.9606 20.334 15.1406 20.334Z" fill="#6C757D"/>
</svg>
