<svg width="48" height="48" viewBox="0 0 48 48" fill="none" xmlns="http://www.w3.org/2000/svg">
<path d="M38.5696 43.8974C38.2696 43.8974 37.9696 43.8574 37.6896 43.7974L8.60951 37.5176C6.64951 37.0776 5.26953 35.3774 5.26953 33.3974V15.3975C5.26953 13.3975 6.62951 11.7178 8.58951 11.2778L37.6696 4.99757C38.9296 4.73757 40.2296 5.03741 41.2096 5.83741C42.2096 6.63741 42.7696 7.83767 42.7696 9.11767V39.6778C42.7696 40.9578 42.2096 42.1576 41.2096 42.9576C40.4496 43.5776 39.5096 43.8974 38.5496 43.8974H38.5696ZM38.3096 7.91749L9.22951 14.1978C8.66951 14.3178 8.26953 14.8175 8.26953 15.3975V33.3974C8.26953 33.9774 8.66951 34.4576 9.24951 34.5976L38.3096 40.8774C38.6696 40.9574 39.0496 40.8778 39.3496 40.6378C39.5096 40.4978 39.7896 40.1978 39.7896 39.6978V9.13769C39.7896 8.63769 39.5096 8.31775 39.3496 8.19775C39.0696 7.95775 38.6896 7.87753 38.3096 7.95753V7.91749Z" fill="#6C757D"/>
<path d="M22.2305 40.4194C21.4105 40.4194 20.7305 39.7394 20.7305 38.9194V9.85938C20.7305 9.03938 21.4105 8.35938 22.2305 8.35938C23.0505 8.35938 23.7305 9.03938 23.7305 9.85938V38.9194C23.7305 39.7394 23.0505 40.4194 22.2305 40.4194Z" fill="#6C757D"/>
<path d="M41.2896 25.8906H6.76953C5.94953 25.8906 5.26953 25.2106 5.26953 24.3906C5.26953 23.5706 5.94953 22.8906 6.76953 22.8906H41.2896C42.1096 22.8906 42.7896 23.5706 42.7896 24.3906C42.7896 25.2106 42.1096 25.8906 41.2896 25.8906Z" fill="#6C757D"/>
</svg>
